# xmcd CD database file
#
# Track frame offsets:
#	150
#	20800
#	32054
#	45358
#	59773
#	77146
#	94575
#	112197
#	127264
#	148437
#	158585
#	180207
#	196297
#	210982
#	227358
#	244582
#	263723
#	276871
#	296426
#
# Disc length: 4217 seconds
#
# Revision: 1
# Processed by: cddbd v1.5.2PL0 Copyright (c) Steve Scherf et al.
# Submitted via: CDex 1.51
#
DISCID=0e107713
DTITLE=PUSSYCAT - The Complete Collection CD-1
DYEAR=2004
DGENRE=Pop
TTITLE0=Mississippi
TTITLE1=Georgie
TTITLE2=Boulevard De La Madeleine
TTITLE3=Mexicali Lane
TTITLE4=Help Me Living On
TTITLE5=Smile
TTITLE6=My Broken Souvenirs
TTITLE7=The Easy Way
TTITLE8=I'll Be Your Woman
TTITLE9=You Don't Know(What It's Like To Be Near)
TTITLE10=If You Ever Come To Amsterdam
TTITLE11=Same Old Song
TTITLE12=Goodbye To Lovin'
TTITLE13=Wet Day In September
TTITLE14=Hey Joe
TTITLE15=Another Day(The Sun Comes Up Tomorrow)
TTITLE16=Love In September
TTITLE17=I Must Get You
TTITLE18=Alleghenny
EXTD=YEAR: 2004
EXTT0=
EXTT1=
EXTT2=
EXTT3=
EXTT4=
EXTT5=
EXTT6=
EXTT7=
EXTT8=
EXTT9=
EXTT10=
EXTT11=
EXTT12=
EXTT13=
EXTT14=
EXTT15=
EXTT16=
EXTT17=
EXTT18=
PLAYORDER=
